<?xml version="1.0" encoding="utf-8"?>
<!-- Generator: Adobe Illustrator 24.0.1, SVG Export Plug-In . SVG Version: 6.00 Build 0)  -->
<svg version="1.1" xmlns="http://www.w3.org/2000/svg" xmlns:xlink="http://www.w3.org/1999/xlink" x="0px" y="0px"
	 viewBox="0 0 301.32 199.23" style="enable-background:new 0 0 301.32 199.23;" xml:space="preserve">
<style type="text/css">
	.st0{display:none;}
	.st1{display:inline;fill:#ffffff;stroke:#3C3C3F;stroke-width:40;stroke-miterlimit:10;}
</style>
<g id="Layer_1" class="st0">
	<path fill='#3C3C3F' class="st1" d="M420.57,518.62c-19.42-45.63-30.17-95.84-30.17-148.56c0-52.72,10.75-102.93,30.17-148.55l0,0
		c1.52-9.62,2.31-19.48,2.31-29.53c0-103.61-83.99-187.59-187.59-187.59S47.69,88.36,47.69,191.97c0,10.05,0.82,19.9,2.34,29.52l0,0
		c19.43,45.63,30.2,95.84,30.2,148.57c0,52.72-10.78,102.93-30.2,148.55l0,0c-1.52,9.62-2.34,19.48-2.34,29.53
		c0,103.61,83.99,187.59,187.59,187.59s187.59-83.99,187.59-187.59C422.88,538.09,422.09,528.24,420.57,518.62L420.57,518.62z"/>
	<path fill='#3C3C3F' class="st1" d="M235.29,70.69c-62.16,0-112.56,68.76-112.56,153.57c0,8.23,0.49,16.29,1.41,24.17l0,0
		c11.66,37.36,18.13,78.46,18.13,121.62c0,43.16-6.47,84.26-18.13,121.62l0,0c-0.91,7.88-1.41,15.95-1.41,24.17
		c0,84.82,50.39,153.57,112.56,153.57"/>
	<path fill='#3C3C3F' class="st1" d="M235.29,133.37c-20.72,0-37.52,54.36-37.52,121.42c0,6.5,0.17,12.88,0.48,19.11l0,0
		c3.89,29.53,6.05,62.03,6.05,96.16c0,34.12-2.17,66.62-6.05,96.15l0,0c-0.3,6.23-0.48,12.61-0.48,19.11
		c0,67.06,16.8,121.42,37.52,121.42"/>
	<path fill='#3C3C3F' class="st1" d="M235.29,133.37c20.72,0,37.52,54.36,37.52,121.42c0,6.5-0.15,12.88-0.45,19.11l0,0
		c-3.88,29.53-6.02,62.03-6.02,96.15c0,34.12,2.14,66.62,6.02,96.15l0,0c0.3,6.23,0.45,12.61,0.45,19.11
		c0,67.06-16.8,121.42-37.52,121.42"/>
	<path fill='#ffffff' class="st1" d="M235.29,70.69c62.16,0,112.56,68.76,112.56,153.57c0,8.23-0.47,16.3-1.38,24.17l0,0
		c-11.65,37.35-18.1,78.46-18.1,121.62c0,43.16,6.44,84.26,18.1,121.62l0,0c0.91,7.88,1.38,15.95,1.38,24.17
		c0,84.82-50.39,153.57-112.56,153.57"/>
</g>
<g id="Layer_3">
	<g>
		<path fill='#ffffff' d="M260.73,94c-24.45,0-40.88,21.56-40.88,53.66c0,32.29,15.28,51.58,40.88,51.58c25.79,0,40.59-18.42,40.59-50.53
			C301.32,115.47,285.39,94,260.73,94z M233.78,147.82c0-35.44,8.82-52.67,26.95-52.67c17.93,0,26.65,17.27,26.65,52.81
			c0,32.33-9.46,50.14-26.65,50.14C242.34,198.09,233.78,182.11,233.78,147.82z"/>
		<rect fill='#ffffff' x="97.58" y="95.13" width="13.58" height="102.97"/>
		<path fill='#ffffff' d="M200.55,163.02c-0.29-0.06-1.35,0.32-1.47,0.54c2.02,9.92,0.54,33.41-34.74,33.41V95.13h-13.58V198.1h51.16
			C199.13,190.98,203.99,169.6,200.55,163.02z"/>
		<path fill='#ffffff' d="M7.84,116.64c0-14.08,11.52-20.38,22.94-20.38c0,0,0.01,0,0.01,0c16.03,0,26.58,15.09,23.99,32.97
			c0.1,0.25,1.11,0.43,1.48,0.25c3.19-8.98-2.28-25.92,0.35-34.35H30.79c-19.36,0-30.46,12.45-30.46,26.83
			c0,37.71,56.73,27.65,56.73,53.55c0,5.91-3.53,21.47-27.2,21.47c-19.26,0-29.85-14.41-27.45-32.98c-0.23-0.22-1.23-0.35-1.57-0.26
			c-2.89,11.2,2.82,26.47-0.67,34.37c0.09,0,29.68,0,29.68,0c22.69,0,36.78-7.92,36.78-31.89C66.65,127.31,7.84,139.21,7.84,116.64z
			"/>
	</g>
	<path fill='#ffffff' d="M167.91,0h-34.55c-15.18,0.05-27.53,13.99-27.53,31.09c0,15.56,11.02,30.91,27.58,30.91h34.55
		c15.18-0.05,27.52-14,27.52-31.1c0,0,0,0,0,0C195.4,13.86,183.03,0,167.91,0z M155.54,1.46c14.13,0,25.7,12.87,26.08,28.8h-10.91
		c-0.31-13.52-8.35-24.91-19.29-28.8H155.54z M156.88,31.73c-0.15,6.34-2.19,12.52-5.8,17.61c-3.37-4.88-5.4-10.98-5.54-17.61
		H156.88z M145.53,30.27c0.15-6.33,2.19-12.52,5.8-17.61c3.38,4.88,5.41,10.98,5.55,17.61H145.53z M158.34,31.73h10.92
		c-0.24,9.8-4.67,18.72-11.98,24.07c-1.97-1.46-3.75-3.21-5.29-5.21C155.95,45.18,158.19,38.54,158.34,31.73z M143.17,1.46
		c14.13,0,25.7,12.87,26.08,28.8h-10.9c-0.27-13.38-7.95-24.73-18.83-28.8H143.17z M129.08,1.88c10.01-1.88,17.97,5.18,21.33,9.53
		c-3.96,5.41-6.2,12.06-6.35,18.86h-36.73C107.68,16,116.97,4.15,129.08,1.88z M133.41,60.54c-14.53,0-26.09-13.41-26.09-28.8h36.75
		c0.27,13.43,7.99,24.77,18.94,28.8H133.41z M158.54,56.68c7.44-5.65,11.94-14.86,12.18-24.95h10.9
		c-0.32,12.47-7.7,23.62-18.22,27.41C161.69,58.5,160.07,57.68,158.54,56.68z M165.6,59.85c10.33-4.55,17.19-15.52,17.48-28.11h10.9
		C193.98,48.48,179.24,63.17,165.6,59.85z M183.09,30.27c-0.31-13.51-8.34-24.9-19.28-28.8h4.1c14.12,0,25.7,12.87,26.08,28.8
		H183.09z"/>
</g>
</svg>
