<svg xmlns="http://www.w3.org/2000/svg" viewBox="0 0 301.32 248.16"><defs><style>.cls-1{fill:#231f20;}</style></defs><g id="Layer_2" data-name="Layer 2"><g id="LOGOTYPE"><path class="cls-1" d="M167.91,0H133.36c-15.18.05-27.53,14-27.53,31.09,0,15.56,11,30.91,27.58,30.91H168c15.18,0,27.53-14,27.53-31.1h0C195.4,13.86,183,0,167.91,0ZM155.54,1.46c14.13,0,25.7,12.87,26.08,28.81H170.71c-.31-13.52-8.34-24.91-19.29-28.81Zm1.34,30.27a31.91,31.91,0,0,1-5.8,17.62,32.09,32.09,0,0,1-5.55-17.62Zm-11.35-1.46a31.87,31.87,0,0,1,5.8-17.61,32.08,32.08,0,0,1,5.55,17.61Zm12.81,1.46h10.92c-.24,9.81-4.67,18.72-12,24.08A27.41,27.41,0,0,1,152,50.6,33.35,33.35,0,0,0,158.34,31.73ZM143.17,1.46c14.12,0,25.7,12.87,26.08,28.81h-10.9c-.28-13.38-7.95-24.73-18.83-28.81Zm-14.09.42c10-1.88,18,5.18,21.34,9.53a33.32,33.32,0,0,0-6.35,18.86H107.33C107.68,16,117,4.15,129.08,1.88Zm4.33,58.66c-14.53,0-26.09-13.41-26.09-28.81h36.75c.27,13.43,8,24.78,18.94,28.81Zm25.13-3.86C166,51,170.48,41.82,170.72,31.73h10.9c-.32,12.47-7.7,23.62-18.22,27.41A24.65,24.65,0,0,1,158.54,56.68Zm7.06,3.17c10.33-4.56,17.19-15.52,17.49-28.12H194C194,48.48,179.24,63.17,165.6,59.85Zm17.49-29.58c-.32-13.51-8.35-24.9-19.28-28.81h4.1c14.12,0,25.7,12.87,26.08,28.81Z"/><path class="cls-1" d="M260.73,94c-24.45,0-40.88,21.56-40.88,53.66,0,32.29,15.28,51.57,40.88,51.57,25.8,0,40.59-18.41,40.59-50.52C301.32,115.47,285.39,94,260.73,94Zm-27,53.82c0-35.45,8.82-52.67,27-52.67,17.94,0,26.66,17.27,26.66,52.8,0,32.33-9.47,50.14-26.66,50.14C242.34,198.09,233.78,182.11,233.78,147.82Z"/><rect class="cls-1" x="97.58" y="95.13" width="13.58" height="102.97"/><path class="cls-1" d="M200.55,163a2.61,2.61,0,0,0-1.47.55c2,9.92.54,33.4-34.74,33.4V95.13H150.76v103h51.16C199.13,191,204,169.6,200.55,163Z"/><path class="cls-1" d="M7.84,116.64c0-14.07,11.52-20.38,23-20.38h0c16,0,26.58,15.09,24,33,.09.25,1.1.44,1.47.25,3.19-9-2.28-25.92.35-34.35H30.79C11.44,95.13.34,107.58.34,122c0,37.71,56.73,27.65,56.73,53.55,0,5.9-3.54,21.46-27.2,21.46C10.61,197,0,182.56,2.42,164a2.67,2.67,0,0,0-1.57-.27C-2,174.94,3.66,190.21.18,198.1H29.87c22.69,0,36.78-7.92,36.78-31.89C66.65,127.31,7.84,139.21,7.84,116.64Z"/><path class="cls-1" d="M74.85,247.89V232.23h3.82a6.55,6.55,0,0,1,1.93.25,3.88,3.88,0,0,1,1.4.73,2.86,2.86,0,0,1,.83,1.19,4.85,4.85,0,0,1,.26,1.63,5,5,0,0,1-.22,1.55,2.91,2.91,0,0,1-.71,1.19,3.62,3.62,0,0,1-1.18.75,3.27,3.27,0,0,1,1.08.56,4,4,0,0,1,.83.92,4.27,4.27,0,0,1,.55,1.16,4.16,4.16,0,0,1,.21,1.33,5.61,5.61,0,0,1-.29,1.85,3.51,3.51,0,0,1-.91,1.38,4,4,0,0,1-1.57.87,7.5,7.5,0,0,1-2.24.3Zm1.48-9h2.11a4.14,4.14,0,0,0,1.9-.36,2.28,2.28,0,0,0,1-.95,2.77,2.77,0,0,0,.3-1.3,3.23,3.23,0,0,0-.16-1.08,2.25,2.25,0,0,0-.5-.83,2.33,2.33,0,0,0-.92-.57,4,4,0,0,0-1.38-.21H76.33Zm0,7.69h2.56a4.25,4.25,0,0,0,1.69-.31,2.41,2.41,0,0,0,1.13-1,3.53,3.53,0,0,0,.4-1.8,3.81,3.81,0,0,0-.35-1.65,2.77,2.77,0,0,0-1.14-1.19,4.25,4.25,0,0,0-2.1-.45H76.33Z"/><path class="cls-1" d="M95.41,247.89V232.23h3.92a5.48,5.48,0,0,1,2.57.53,3.12,3.12,0,0,1,1.45,1.51,5.53,5.53,0,0,1,.45,2.33,5,5,0,0,1-.35,1.86,4.34,4.34,0,0,1-1,1.5,3.27,3.27,0,0,1-1.48.84l3.19,7.09h-1.61l-3.12-7H96.91v7Zm1.5-8.37H99.5a2.61,2.61,0,0,0,2.11-.79,3.13,3.13,0,0,0,.68-2.13,3.71,3.71,0,0,0-.29-1.54,2.18,2.18,0,0,0-.9-1,2.94,2.94,0,0,0-1.6-.38H96.91Z"/><path class="cls-1" d="M120,248.16a4,4,0,0,1-2.6-.87,5.37,5.37,0,0,1-1.65-2.67,15.3,15.3,0,0,1-.55-4.47,15,15,0,0,1,.55-4.4,5.56,5.56,0,0,1,1.65-2.7,4.15,4.15,0,0,1,5.21,0,5.54,5.54,0,0,1,1.63,2.7,15,15,0,0,1,.56,4.4,15.27,15.27,0,0,1-.56,4.47,5.35,5.35,0,0,1-1.63,2.67A4,4,0,0,1,120,248.16Zm0-1.35a2.41,2.41,0,0,0,1.77-.72,4.86,4.86,0,0,0,1.12-2.17,14.92,14.92,0,0,0,.4-3.77,14.77,14.77,0,0,0-.4-3.7,5,5,0,0,0-1.12-2.22,2.47,2.47,0,0,0-3.53,0,4.82,4.82,0,0,0-1.13,2.22,14.27,14.27,0,0,0-.41,3.7,14.42,14.42,0,0,0,.41,3.77,4.67,4.67,0,0,0,1.13,2.17A2.4,2.4,0,0,0,120,246.81Z"/><path class="cls-1" d="M140.39,248.16a4.06,4.06,0,0,1-2.6-.87,5.29,5.29,0,0,1-1.64-2.67,15.27,15.27,0,0,1-.56-4.47,15,15,0,0,1,.56-4.4,5.48,5.48,0,0,1,1.64-2.7,4.16,4.16,0,0,1,5.22,0,5.61,5.61,0,0,1,1.63,2.7,15,15,0,0,1,.55,4.4,15.3,15.3,0,0,1-.55,4.47,5.42,5.42,0,0,1-1.63,2.67A4,4,0,0,1,140.39,248.16Zm0-1.35a2.41,2.41,0,0,0,1.78-.72,4.85,4.85,0,0,0,1.11-2.17,14.42,14.42,0,0,0,.41-3.77,14.27,14.27,0,0,0-.41-3.7,5,5,0,0,0-1.11-2.22,2.49,2.49,0,0,0-3.54,0,5,5,0,0,0-1.13,2.22,14.77,14.77,0,0,0-.4,3.7,14.92,14.92,0,0,0,.4,3.77,4.86,4.86,0,0,0,1.13,2.17A2.43,2.43,0,0,0,140.39,246.81Z"/><path class="cls-1" d="M158.94,240.07l-1,1.33v6.49h-1.56V232.23h1.76v.18a.54.54,0,0,0-.19.3,2.71,2.71,0,0,0,0,.6v6.23l5.68-7.43.25,0,.27,0,.29,0h.82L160.07,239l5.51,8.85-1.86.1Z"/><path class="cls-1" d="M177.26,232.23H179v.18a.49.49,0,0,0-.19.3,2.86,2.86,0,0,0,0,.6v13.2h6.53v1.38h-8Z"/><path class="cls-1" d="M201,247.89v-6.23l-4.17-9.43h1.66l3.32,7.54,3.06-7.54h1.54l-3.87,9.43v6.23Z"/><path class="cls-1" d="M217.73,232.23h1.4L224.86,244V232.23h1.61v.18a.55.55,0,0,0-.16.3,2.86,2.86,0,0,0,0,.6v14.58h-1.16l-6-12.44v12.44h-1.4Z"/></g></g></svg>