<?xml version="1.0" encoding="utf-8"?>
<!-- Generator: Adobe Illustrator 24.0.1, SVG Export Plug-In . SVG Version: 6.00 Build 0)  -->
<svg version="1.1" xmlns="http://www.w3.org/2000/svg" xmlns:xlink="http://www.w3.org/1999/xlink" x="0px" y="0px"
	 viewBox="0 0 301.32 105.23" style="enable-background:new 0 0 301.32 105.23;" xml:space="preserve">
<style type="text/css">
	.st0{display:none;}
	.st1{display:inline;fill:none;stroke:#3C3C3F;stroke-width:40;stroke-miterlimit:10;}
</style>
<g id="Layer_1" class="st0">
	<path fill="#ffffff" class="st1" d="M420.57,424.62c-19.42-45.63-30.17-95.84-30.17-148.56c0-52.72,10.75-102.93,30.17-148.55l0,0
		c1.52-9.62,2.31-19.48,2.31-29.53c0-103.61-83.99-187.59-187.59-187.59S47.69-5.64,47.69,97.97c0,10.05,0.82,19.9,2.34,29.52l0,0
		c19.43,45.63,30.2,95.84,30.2,148.57c0,52.72-10.78,102.93-30.2,148.55l0,0c-1.52,9.62-2.34,19.48-2.34,29.53
		c0,103.61,83.99,187.59,187.59,187.59s187.59-83.99,187.59-187.59C422.88,444.09,422.09,434.24,420.57,424.62L420.57,424.62z"/>
	<path fill="#ffffff" class="st1" d="M235.29-23.31c-62.16,0-112.56,68.76-112.56,153.57c0,8.23,0.49,16.29,1.41,24.17l0,0
		c11.66,37.36,18.13,78.46,18.13,121.62c0,43.16-6.47,84.26-18.13,121.62l0,0c-0.91,7.88-1.41,15.95-1.41,24.17
		c0,84.82,50.39,153.57,112.56,153.57"/>
	<path fill="#ffffff" class="st1" d="M235.29,39.37c-20.72,0-37.52,54.36-37.52,121.42c0,6.5,0.17,12.88,0.48,19.11l0,0
		c3.89,29.53,6.05,62.03,6.05,96.16c0,34.12-2.17,66.62-6.05,96.15l0,0c-0.3,6.23-0.48,12.61-0.48,19.11
		c0,67.06,16.8,121.42,37.52,121.42"/>
	<path fill="#ffffff" class="st1" d="M235.29,39.37c20.72,0,37.52,54.36,37.52,121.42c0,6.5-0.15,12.88-0.45,19.11l0,0
		c-3.88,29.53-6.02,62.03-6.02,96.15c0,34.12,2.14,66.62,6.02,96.15l0,0c0.3,6.23,0.45,12.61,0.45,19.11
		c0,67.06-16.8,121.42-37.52,121.42"/>
	<path fill="#ffffff" class="st1" d="M235.29-23.31c62.16,0,112.56,68.76,112.56,153.57c0,8.23-0.47,16.3-1.38,24.17l0,0
		c-11.65,37.35-18.1,78.46-18.1,121.62c0,43.16,6.44,84.26,18.1,121.62l0,0c0.91,7.88,1.38,15.95,1.38,24.17
		c0,84.82-50.39,153.57-112.56,153.57"/>
</g>
<g id="Layer_3">
	<g>
		<path fill="#ffffff" d="M260.73,0c-24.45,0-40.88,21.56-40.88,53.66c0,32.29,15.28,51.58,40.88,51.58c25.79,0,40.59-18.42,40.59-50.53
			C301.32,21.47,285.39,0,260.73,0z M233.78,53.82c0-35.44,8.82-52.67,26.95-52.67c17.93,0,26.65,17.27,26.65,52.81
			c0,32.33-9.46,50.14-26.65,50.14C242.34,104.09,233.78,88.11,233.78,53.82z"/>
		<rect fill="#ffffff" x="97.58" y="1.13" width="13.58" height="102.97"/>
		<path fill="#ffffff" d="M200.55,69.02c-0.29-0.06-1.35,0.32-1.47,0.54c2.02,9.92,0.54,33.41-34.74,33.41V1.13h-13.58V104.1h51.16
			C199.13,96.98,203.99,75.6,200.55,69.02z"/>
		<path fill="#ffffff" d="M7.84,22.64c0-14.08,11.52-20.38,22.94-20.38c0,0,0.01,0,0.01,0c16.03,0,26.58,15.09,23.99,32.97
			c0.1,0.25,1.11,0.43,1.48,0.25c3.19-8.98-2.28-25.92,0.35-34.35H30.79c-19.36,0-30.46,12.45-30.46,26.83
			c0,37.71,56.73,27.65,56.73,53.55c0,5.91-3.53,21.47-27.2,21.47C10.61,102.97,0.02,88.56,2.42,70c-0.23-0.22-1.23-0.35-1.57-0.26
			c-2.89,11.2,2.82,26.47-0.67,34.37c0.09,0,29.68,0,29.68,0c22.69,0,36.78-7.92,36.78-31.89C66.65,33.31,7.84,45.21,7.84,22.64z"/>
	</g>
</g>
</svg>
