<?xml version="1.0" encoding="utf-8"?>
<!-- Generator: Adobe Illustrator 24.0.1, SVG Export Plug-In . SVG Version: 6.00 Build 0)  -->
<svg version="1.1" xmlns="http://www.w3.org/2000/svg" xmlns:xlink="http://www.w3.org/1999/xlink" x="0px" y="0px"
	 viewBox="0 0 89.65 62" style="enable-background:new 0 0 89.65 62;" xml:space="preserve">
<style type="text/css">
	.st0{display:none;}
	.st1{display:inline;fill:#ffffff;stroke:#3C3C3F;stroke-width:40;stroke-miterlimit:10;}
</style>
<g id="Layer_1" class="st0">
	<path class="st1" d="M314.74,518.62c-19.42-45.63-30.17-95.84-30.17-148.56c0-52.72,10.75-102.93,30.17-148.55l0,0
		c1.52-9.62,2.31-19.48,2.31-29.53c0-103.61-83.99-187.59-187.59-187.59S-58.14,88.36-58.14,191.97c0,10.05,0.82,19.9,2.34,29.52
		l0,0c19.43,45.63,30.2,95.84,30.2,148.57c0,52.72-10.78,102.93-30.2,148.55l0,0c-1.52,9.62-2.34,19.48-2.34,29.53
		c0,103.61,83.99,187.59,187.59,187.59s187.59-83.99,187.59-187.59C317.05,538.09,316.26,528.24,314.74,518.62L314.74,518.62z"/>
	<path class="st1" d="M129.45,70.69c-62.16,0-112.56,68.76-112.56,153.57c0,8.23,0.49,16.29,1.41,24.17l0,0
		c11.66,37.36,18.13,78.46,18.13,121.62c0,43.16-6.47,84.26-18.13,121.62l0,0c-0.91,7.88-1.41,15.95-1.41,24.17
		c0,84.82,50.39,153.57,112.56,153.57"/>
</g>
<g id="Layer_3">
	<path d="M62.08,0H27.53C12.35,0.05,0,13.99,0,31.09C0,46.65,11.02,62,27.58,62h34.55c15.18-0.05,27.52-14,27.52-31.1c0,0,0,0,0,0
		C89.56,13.86,77.19,0,62.08,0z M49.71,1.46c14.13,0,25.7,12.87,26.08,28.8H64.88c-0.31-13.52-8.35-24.91-19.29-28.8H49.71z
		 M51.04,31.73c-0.15,6.34-2.19,12.52-5.8,17.61c-3.37-4.88-5.4-10.98-5.54-17.61H51.04z M39.7,30.27
		c0.15-6.33,2.19-12.52,5.8-17.61c3.38,4.88,5.41,10.98,5.55,17.61H39.7z M52.51,31.73h10.92c-0.24,9.8-4.67,18.72-11.98,24.07
		c-1.97-1.46-3.75-3.21-5.29-5.21C50.12,45.18,52.35,38.54,52.51,31.73z M37.34,1.46c14.13,0,25.7,12.87,26.08,28.8h-10.9
		c-0.27-13.38-7.95-24.73-18.83-28.8H37.34z M23.25,1.88C33.26,0,41.22,7.06,44.58,11.41c-3.96,5.41-6.2,12.06-6.35,18.86H1.5
		C1.85,16,11.14,4.15,23.25,1.88z M27.58,60.54c-14.53,0-26.09-13.41-26.09-28.8h36.75c0.27,13.43,7.99,24.77,18.94,28.8H27.58z
		 M52.71,56.68c7.44-5.65,11.94-14.86,12.18-24.95h10.9c-0.32,12.47-7.7,23.62-18.22,27.41C55.86,58.5,54.24,57.68,52.71,56.68z
		 M59.77,59.85c10.33-4.55,17.19-15.52,17.48-28.11h10.9C88.15,48.48,73.4,63.17,59.77,59.85z M77.25,30.27
		c-0.31-13.51-8.34-24.9-19.28-28.8h4.1c14.12,0,25.7,12.87,26.08,28.8H77.25z"/>
</g>
</svg>
